# xmcd
#
# Track frame offsets: 
#        150
#        6244
#        25497
#        47143
#        66155
#        92299
#        114356
#        142322
#        161840
#        184596
#        207881
#        232924
#        262375
#
# Disc length: 3799 seconds
#
# Revision: 0
# Processed by: cddbd v1.5.2PL0 Copyright (c) Steve Scherf et al.
# Submitted via: ExactAudioCopy v1.0b3
#
DISCID=b70ed50d
DTITLE=Various Artist - Hoa No Ve Dem
DYEAR=1984
DGENRE=
TTITLE0=Phuong Dung - Loi gioi thieu
TTITLE1=Thanh Tuyen - Dem buon tinh le
TTITLE2=Phuong Dung - Neu mot mai anh biet kinh ky
TTITLE3=Uyen Thanh - Xin thoi gian qua mau
TTITLE4=Kim Tuyen - Thuong han
TTITLE5=Truc Ly - Ve dau mai toc nguoi thuong
TTITLE6=Thanh Tuyen - Go cua
TTITLE7=Giao Linh - Canh hoa yeu
TTITLE8=Kim Tuyen - Ai buon hon ai
TTITLE9=Uyen Thanh - Pho vang em roi
TTITLE10=Phuong Dung - Sau co do
TTITLE11=Truc Ly - Hoa no ve dem
TTITLE12=Thanh Tuyen - No va toi
EXTD=
EXTT0=
EXTT1=
EXTT2=
EXTT3=
EXTT4=
EXTT5=
EXTT6=
EXTT7=
EXTT8=
EXTT9=
EXTT10=
EXTT11=
EXTT12=
PLAYORDER=
